#!OML:ASF F:\VICON\USERDATA\INSTALL\rory3\rory3.ASF
:FULLY-SPECIFIED
:DEGREES
3926
root -2.45525 17.2999 1.52419 4.37781 -45.035 15.5044
lowerback 8.63656 -10.6165 0.316336
upperback 2.74989 -14.3714 13.3544
thorax 1.78101 -7.7612 15.1876
lowerneck -20.8097 15.5713 -2.30336
upperneck 17.4919 24.1553 -8.69769
head 9.79713 10.1314 0.944135
rclavicle -3.02153e-014 4.92986e-014
rhumerus -42.121 -25.9085 -29.7132
rradius 44.0623
rwrist 21.9157
rhand -34.0244 -1.44075
rfingers 7.12502
rthumb -7.20316 -31.2982
lclavicle -3.02153e-014 4.92986e-014
lhumerus 62.79 -13.8124 69.7153
lradius 32.3611
lwrist -20.2097
lhand -21.7333 22.7137
lfingers 7.12502
lthumb 4.66627 52.6423
rfemur -46.9872 21.1653 -13.6395
rtibia 39.7976
rfoot -5.23472 13.6264
rtoes 10.8932
lfemur -18.7407 25.1049 -38.0986
ltibia 28.643
lfoot -19.1549 21.0534
ltoes -17.4145
3927
root -2.45362 17.3049 1.51565 4.71225 -44.8203 14.6213
lowerback 8.6355 -10.4908 0.698527
upperback 2.76346 -14.171 13.4084
thorax 1.6629 -7.64551 15.0426
lowerneck -20.8428 15.4225 -2.10399
upperneck 17.5616 23.9121 -8.71978
head 9.84725 10.0172 0.883157
rclavicle -4.13472e-014 1.20861e-013
rhumerus -41.6987 -25.255 -29.921
rradius 44.2506
rwrist 21.2151
rhand -34.0963 -1.41016
rfingers 7.12502
rthumb -7.27249 -31.2652
lclavicle -4.13472e-014 1.20861e-013
lhumerus 62.4729 -13.8089 70.5951
lradius 32.0196
lwrist -20.8662
lhand -21.6818 22.9765
lfingers 7.12502
lthumb 4.71598 52.904
rfemur -46.5069 21.2166 -12.7534
rtibia 39.6305
rfoot -5.20401 13.6001
rtoes 10.4873
lfemur -18.5468 25.0535 -37.2562
ltibia 28.9655
lfoot -19.1499 21.0366
ltoes -17.5999
3928
root -2.45189 17.3115 1.50822 5.1512 -44.5134 13.5601
lowerback 8.65326 -10.4613 1.34644
upperback 2.75437 -14.0669 13.4566
thorax 1.46962 -7.56643 14.7498
lowerneck -20.9452 15.3485 -2.04674
upperneck 17.824 23.7749 -8.46554
head 9.92286 9.96052 0.950865
rclavicle 3.33958e-014 -4.45278e-014
rhumerus -41.2099 -25.2659 -29.9587
rradius 44.2486
rwrist 21.2216
rhand -34.1387 -1.56002
rfingers 7.12502
rthumb -7.31348 -31.4136
lclavicle 3.33958e-014 -4.45278e-014
lhumerus 62.0409 -13.7398 71.1673
lradius 31.7944
lwrist -21.3556
lhand -21.7217 23.9083
lfingers 7.12502
lthumb 4.67746 53.8367
rfemur -45.946 21.2621 -11.7169
rtibia 39.4293
rfoot -5.16045 13.585
rtoes 9.8796
lfemur -18.3437 25.0177 -36.2627
ltibia 29.3171
lfoot -19.3166 20.9369
ltoes -17.4166
3929
root -2.44739 17.3134 1.50079 5.28964 -44.2677 12.9451
lowerback 8.74653 -10.4575 1.69067
upperback 2.71113 -14.0089 13.4305
thorax 1.26433 -7.51464 14.5581
lowerneck -21.0808 15.3289 -2.13149
upperneck 18.0965 23.703 -8.00632
head 9.96252 9.95157 1.10916
rclavicle 6.36111e-015 -9.54166e-015
rhumerus -40.5568 -25.8489 -29.8697
rradius 43.9836
rwrist 21.9605
rhand -34.1605 -1.54885
rfingers 7.12502
rthumb -7.33454 -31.4017
lclavicle 6.36111e-015 -9.54166e-015
lhumerus 61.6285 -13.6188 71.1897
lradius 31.6958
lwrist -21.3379
lhand -21.5571 23.7616
lfingers 7.12502
lthumb 4.83641 53.6864
rfemur -45.4598 21.2982 -11.0633
rtibia 39.2328
rfoot -5.14095 13.596
rtoes 9.06846
lfemur -18.1517 24.9817 -35.6162
ltibia 29.6336
lfoot -19.4245 20.8884
ltoes -17.6375
3930
root -2.44241 17.3126 1.49112 5.2005 -44.1443 12.7451
lowerback 8.83718 -10.4059 1.66236
upperback 2.6333 -13.9176 13.3728
thorax 1.09701 -7.4554 14.5364
lowerneck -21.218 15.318 -2.33264
upperneck 18.4506 23.65 -7.40269
head 9.99753 9.95775 1.33123
rclavicle -1.06549e-013 -2.8625e-014
rhumerus -39.8352 -25.9361 -29.9374
rradius 43.7517
rwrist 22.1756
rhand -34.1657 -1.24952
rfingers 7.12502
rthumb -7.33952 -31.1022
lclavicle -1.06549e-013 -2.8625e-014
lhumerus 61.276 -13.4701 71.0102
lradius 31.6366
lwrist -21.0156
lhand -21.3642 23.2099
lfingers 7.12502
lthumb 5.02267 53.1304
rfemur -45.1197 21.3244 -10.7858
rtibia 39.0741
rfoot -5.10759 13.6631
rtoes 8.64023
lfemur -18.0241 24.9823 -35.3487
ltibia 29.8667
lfoot -19.394 20.9673
ltoes -18.1661
3931
root -2.43866 17.3148 1.48223 5.18071 -44.0242 12.4822
lowerback 8.87587 -10.3062 1.69713
upperback 2.57843 -13.7637 13.317
thorax 0.953031 -7.3636 14.4667
lowerneck -21.3333 15.2225 -2.46589
upperneck 18.668 23.4741 -6.93907
head 10.0068 9.9054 1.47717
rclavicle 4.77083e-015 -1.27222e-014
rhumerus -39.3272 -25.7786 -30.0476
rradius 43.7272
rwrist 22.0274
rhand -34.148 -1.1334
rfingers 7.12502
rthumb -7.32241 -30.9867
lclavicle 4.77083e-015 -1.27222e-014
lhumerus 60.9687 -13.411 70.8906
lradius 31.5904
lwrist -20.8269
lhand -21.3856 23.9501
lfingers 7.12502
lthumb 5.00206 53.871
rfemur -44.8171 21.358 -10.4676
rtibia 38.9713
rfoot -5.13246 13.6912
rtoes 8.27674
lfemur -17.8626 24.9577 -35.0508
ltibia 29.9627
lfoot -19.4524 21.008
ltoes -18.1921
3932
root -2.43733 17.317 1.47476 5.15968 -43.8939 12.2875
lowerback 8.82518 -10.1955 1.69869
upperback 2.52963 -13.6059 13.2274
thorax 0.861806 -7.26997 14.3529
lowerneck -21.3967 15.0879 -2.45682
upperneck 18.7519 23.2431 -6.71978
head 10.012 9.81697 1.51545
rclavicle 5.24792e-014 -4.77083e-014
rhumerus -39.008 -25.8896 -30.0407
rradius 43.7719
rwrist 22.6095
rhand -33.8023 -1.361
rfingers 7.12502
rthumb -6.9887 -31.2256
lclavicle 5.24792e-014 -4.77083e-014
lhumerus 60.693 -13.4548 70.7083
lradius 31.5931
lwrist -20.6066
lhand -21.2915 24.8336
lfingers 7.12502
lthumb 5.0929 54.7524
rfemur -44.5678 21.3223 -10.1957
rtibia 38.8946
rfoot -5.14335 13.7576
rtoes 7.75838
lfemur -17.6931 24.8856 -34.81
ltibia 29.9337
lfoot -19.6477 21.0143
ltoes -17.5523
3933
root -2.43804 17.3187 1.47006 4.95996 -43.81 12.4063
lowerback 8.66377 -10.0845 1.50727
upperback 2.49499 -13.4752 13.0613
thorax 0.87684 -7.19405 14.2279
lowerneck -21.4546 14.9809 -2.35302
upperneck 18.8846 23.0421 -6.55434
head 10.0536 9.73765 1.53389
rclavicle 1.25632e-013 -4.13472e-014
rhumerus -38.6417 -25.9364 -30.1564
rradius 43.739
rwrist 23.2322
rhand -33.5543 -1.64079
rfingers 7.12502
rthumb -6.74931 -31.5132
lclavicle 1.25632e-013 -4.13472e-014
lhumerus 60.5017 -13.4505 70.6472
lradius 31.468
lwrist -20.5158
lhand -21.2053 24.9011
lfingers 7.12502
lthumb 5.17608 54.8178
rfemur -44.3572 21.2252 -10.185
rtibia 38.8223
rfoot -5.08514 13.8723
rtoes 7.54024
lfemur -17.5016 24.8602 -34.8246
ltibia 29.8492
lfoot -19.7963 20.958
ltoes -16.7499
3934
root -2.43675 17.3221 1.4652 4.66816 -43.7306 12.6105
lowerback 8.59475 -9.9449 1.24176
upperback 2.46426 -13.306 12.9198
thorax 0.861495 -7.10177 14.1944
lowerneck -21.6735 14.8657 -2.36769
upperneck 19.2089 22.872 -6.27945
head 10.1644 9.65706 1.62631
rclavicle 1.06549e-013 6.36111e-015
rhumerus -38.1654 -25.8454 -30.3499
rradius 43.5163
rwrist 23.0021
rhand -33.9562 -1.59065
rfingers 7.12502
rthumb -7.13731 -31.4503
lclavicle 1.06549e-013 6.36111e-015
lhumerus 60.3618 -13.3662 70.9936
lradius 31.2357
lwrist -20.8206
lhand -21.1791 24.6856
lfingers 7.12502
lthumb 5.20145 54.6018
rfemur -44.0925 21.1044 -10.2213
rtibia 38.7292
rfoot -4.92812 14.0356
rtoes 7.65862
lfemur -17.2344 24.7126 -34.8817
ltibia 29.7691
lfoot -19.772 20.9293
ltoes -16.3184
3935
root -2.43296 17.3226 1.45501 4.48259 -43.6447 12.6037
lowerback 8.75211 -9.83657 1.04602
upperback 2.41821 -13.1547 12.8574
thorax 0.716928 -7.01824 14.2697
lowerneck -21.8607 14.7585 -2.54354
upperneck 19.422 22.7273 -5.94271
head 10.2032 9.59784 1.75179
rclavicle 6.36111e-014 -1.01778e-013
rhumerus -37.5959 -25.7289 -30.5206
rradius 43.3432
rwrist 22.5342
rhand -34.2012 -1.09015
rfingers 7.12502
rthumb -7.37374 -30.9417
lclavicle 6.36111e-014 -1.01778e-013
lhumerus 60.1851 -13.2446 70.939
lradius 31.2057
lwrist -20.782
lhand -21.095 24.5815
lfingers 7.12502
lthumb 5.28258 54.4957
rfemur -43.8235 20.9924 -10.0528
rtibia 38.624
rfoot -4.73597 14.18
rtoes 7.48147
lfemur -16.9966 24.4245 -34.7433
ltibia 29.7382
lfoot -19.7281 21.1069
ltoes -16.2752
3936
root -2.4296 17.3232 1.44047 4.50514 -43.5912 12.3127
lowerback 8.9786 -9.77715 0.985282
upperback 2.35401 -13.0542 12.8798
thorax 0.519855 -6.96096 14.3881
lowerneck -21.7769 14.6708 -2.69556
upperneck 19.4019 22.6109 -5.81705
head 10.1444 9.55581 1.78163
rclavicle 1.11319e-013 -5.40694e-014
rhumerus -36.9667 -25.4986 -30.7229
rradius 43.344
rwrist 22.2776
rhand -34.231 -0.927285
rfingers 7.12502
rthumb -7.40259 -30.7778
lclavicle 1.11319e-013 -5.40694e-014
lhumerus 59.8991 -12.9686 70.9061
lradius 31.1492
lwrist -20.7902
lhand -21.0169 24.4479
lfingers 7.12502
lthumb 5.35804 54.3602
rfemur -43.6406 21.0405 -9.72472
rtibia 38.5091
rfoot -4.56387 14.1802
rtoes 7.74773
lfemur -16.8776 24.157 -34.4017
ltibia 29.7767
lfoot -19.6141 21.4602
ltoes -16.698
3937
root -2.42975 17.3258 1.42893 4.58383 -43.5554 12.0404
lowerback 8.98158 -9.67765 1.07897
upperback 2.34221 -12.9028 12.7894
thorax 0.421957 -6.87051 14.2297
lowerneck -21.7209 14.5545 -2.60297
upperneck 19.3512 22.3909 -5.74216
head 10.1129 9.4758 1.75318
rclavicle -1.27222e-014 1.90833e-014
rhumerus -36.5895 -25.5009 -30.9727
rradius 43.394
rwrist 22.0849
rhand -34.3587 -1.15228
rfingers 7.12502
rthumb -7.52576 -30.9984
lclavicle -1.27222e-014 1.90833e-014
lhumerus 59.7791 -12.9014 70.7599
lradius 31.0546
lwrist -20.7508
lhand -20.8984 24.4057
lfingers 7.12502
lthumb 5.47241 54.3151
rfemur -43.5149 21.132 -9.46751
rtibia 38.3997
rfoot -4.50934 14.1729
rtoes 7.98567
lfemur -16.8416 24.111 -34.1358
ltibia 29.8628
lfoot -19.4768 21.6471
ltoes -17.2349
